# xmcd
#
# Track frame offsets:
#	150
#	14947
#	26797
#	38667
#	51215
#	63435
#	74460
#	87832
#	101107
#	112592
#	128605
#	141007
#	152110
#	165322
#	183925
#	203647
#
# Disc length: 2979 seconds
#
# Revision: 1
# Processed by: cddbd v1.5.1PL0 Copyright (c) Steve Scherf et al.
# Submitted via: EasyCDDAExtractor 4.6.9.1
#
DISCID=d30ba110
DTITLE=Sidney Bechet - Multi distribution
DYEAR=1900
DGENRE=Blues
TTITLE0=I'm speaking my mind
TTITLE1=Never will I forget the blues
TTITLE2=The blues and Freud (part 1)
TTITLE3=The blues and Freud (part 2)
TTITLE4=Step down, step up
TTITLE5=Shaking' loose
TTITLE6=Revolutionary blues I
TTITLE7=Revolutionary blues II
TTITLE8=Layin' my rules in blues
TTITLE9=Those mellow blues
TTITLE10=Broken man blues
TTITLE11=133rd street boogie
TTITLE12=minor swoon (version I)
TTITLE13=Perdido street stomp
TTITLE14=32 bars of blues
TTITLE15=Forgotten harmony
EXTD=
EXTT0=
EXTT1=
EXTT2=
EXTT3=
EXTT4=
EXTT5=
EXTT6=
EXTT7=
EXTT8=
EXTT9=
EXTT10=
EXTT11=
EXTT12=
EXTT13=
EXTT14=
EXTT15=
PLAYORDER=
